<?xml version="1.0" encoding="utf-8"?>
<!-- Generator: Adobe Illustrator 27.1.0, SVG Export Plug-In . SVG Version: 6.00 Build 0)  -->
<svg version="1.1" id="Layer_1" xmlns="http://www.w3.org/2000/svg" xmlns:xlink="http://www.w3.org/1999/xlink" x="0px" y="0px"
	 width="850px" height="180px" viewBox="0 0 850 180" style="enable-background:new 0 0 850 180;" xml:space="preserve">
<style type="text/css">
	.st0{fill:url(#SVGID_1_);}
	.st1{fill:url(#SVGID_00000067236390763681732950000017968815108887508148_);}
	.st2{fill:url(#SVGID_00000154406736355060988200000008204949165478067617_);}
	.st3{fill:url(#SVGID_00000130606686046376221150000009682824989499364228_);}
	.st4{fill:#F7F7F9;}
	.st5{fill:#342922;}
	.st6{fill:url(#SVGID_00000072991619754533534640000016622015092486861967_);}
	.st7{fill:url(#SVGID_00000067200053332476330850000008659350120428733855_);}
	.st8{fill:url(#SVGID_00000059281045324558337800000010987049386586987139_);}
	.st9{fill:url(#SVGID_00000137097315313663947200000001795612283842978210_);}
	.st10{fill:#00A0FF;}
	.st11{fill:url(#SVGID_00000179618961506265677480000008739866422351017874_);}
	.st12{fill:url(#SVGID_00000171703213699761154210000012854092112691846078_);}
	.st13{fill:url(#SVGID_00000181787622227742180240000006214736744043817640_);}
	.st14{fill:url(#SVGID_00000052790170977206584650000005211583160298455949_);}
	.st15{fill:url(#SVGID_00000165913110045104086920000004686240320151630999_);}
	.st16{fill:url(#SVGID_00000080887183107130925710000001948250679218014336_);}
	.st17{fill:url(#SVGID_00000160894206248159558050000007848168828635189904_);}
	.st18{fill:url(#SVGID_00000176020241852876355400000002986008168101705612_);}
</style>
<g>
	<path class="st5" d="M266.1,116.8h11.1v-47h-11.1V116.8z M205.8,85.9c0-5.2-1.6-9.4-4.9-12.7c-3.3-3.3-8.3-4.9-15.1-4.9
		c-5.5,0-10.1,1.5-13.7,4.5c-3.6,3-5.6,6.6-6.1,10.9l10.2,2.3c0.3-2.5,1.2-4.6,2.9-6.1c1.7-1.6,3.9-2.4,6.8-2.4c3,0,5.2,0.7,6.7,2
		c1.5,1.3,2.2,3,2.2,5.2c0,1.9-1.2,3.1-3.5,3.4l-12.1,1.8c-4.2,0.6-7.7,2.2-10.3,4.6c-2.6,2.4-3.9,5.6-3.9,9.6c0,3.9,1.5,7.2,4.4,10
		c2.9,2.8,6.8,4.2,11.5,4.2c6.6,0,11.4-2.5,14.5-7.4c0,3,0.2,5,0.5,6h10.4c-0.4-1.9-0.6-4.4-0.6-7.5V85.9z M194.8,97.3
		c0,4.3-1.1,7.4-3.2,9.3c-2.2,1.9-5,2.8-8.5,2.8c-2.1,0-3.8-0.6-5-1.8c-1.2-1.2-1.8-2.6-1.8-4.3c0-3.5,2.1-5.7,6.3-6.4l12.3-1.8
		V97.3z M271.6,45.9c-2,0-3.7,0.7-5.1,2.2c-1.4,1.4-2.1,3.2-2.1,5.2c0,2,0.7,3.7,2.1,5.1c1.4,1.4,3.1,2.1,5.1,2.1
		c2.1,0,3.8-0.7,5.2-2.1c1.4-1.4,2.1-3.1,2.1-5.1c0-2.1-0.7-3.8-2.1-5.2C275.4,46.6,273.6,45.9,271.6,45.9z M239.3,68.5
		c-3.4,0-6.4,0.7-9.1,2c-2.6,1.4-4.5,3-5.7,5V46.9h-11v69.9h10.9v-6.3c3,5,7.8,7.4,14.5,7.4c6.7,0,12.1-2.3,16.1-7
		c4-4.7,6-10.6,6-17.9c0-7.1-1.9-13-5.7-17.6C251.5,70.8,246.1,68.5,239.3,68.5z M246.2,104c-2.4,2.7-5.4,4-9.1,4
		c-3.7,0-6.7-1.4-9.1-4.1c-2.4-2.7-3.6-6.3-3.6-10.8c0-4.6,1.2-8.2,3.6-10.8c2.4-2.6,5.4-3.9,9.1-3.9c3.8,0,6.9,1.3,9.2,3.9
		c2.3,2.6,3.5,6.2,3.5,10.8C249.8,97.7,248.6,101.3,246.2,104z M94.5,48.3l-26.7,68.5h12.3l6.4-17.2h29l6.5,17.2h12.7L108,48.3H94.5
		z M90.6,88.9l10.4-28l10.4,28H90.6z M153,71.3c-2.4,1.4-4.2,3.4-5.3,5.9v-7.5h-10.9v47H148V94.4c0-9.2,4.2-13.8,12.7-13.8
		c1.2,0,2.4,0.1,3.7,0.3V69.5c-1-0.2-2-0.3-3-0.3C158.2,69.2,155.4,69.9,153,71.3z M475.5,85.9c0-5.2-1.6-9.4-4.9-12.7
		c-3.3-3.3-8.3-4.9-15.1-4.9c-5.5,0-10.1,1.5-13.7,4.5c-3.6,3-5.6,6.6-6.1,10.9l10.2,2.3c0.3-2.5,1.2-4.6,2.9-6.1
		c1.7-1.6,3.9-2.4,6.8-2.4c3,0,5.2,0.7,6.7,2c1.5,1.3,2.2,3,2.2,5.2c0,1.9-1.2,3.1-3.5,3.4l-12.1,1.8c-4.2,0.6-7.7,2.2-10.3,4.6
		c-2.6,2.4-3.9,5.6-3.9,9.6c0,3.9,1.5,7.2,4.4,10c2.9,2.8,6.8,4.2,11.5,4.2c6.6,0,11.4-2.5,14.5-7.4c0,3,0.2,5,0.5,6H476
		c-0.4-1.9-0.6-4.4-0.6-7.5V85.9z M464.5,97.3c0,4.3-1.1,7.4-3.2,9.3c-2.2,1.9-5,2.8-8.5,2.8c-2.1,0-3.8-0.6-5-1.8
		c-1.2-1.2-1.8-2.6-1.8-4.3c0-3.5,2.1-5.7,6.3-6.4l12.3-1.8V97.3z M744.4,68.3c-6.2,0-11.5,2.3-16.1,7c-4.5,4.6-6.8,10.6-6.8,17.8
		c0,7.7,2.3,13.8,7,18.4c4.7,4.6,10.3,6.9,17,6.9c5.4,0,10-1.4,13.7-4.2c3.7-2.8,6.2-6.4,7.6-10.7l-9.5-3c-1.8,5.5-5.7,8.2-11.8,8.2
		c-3.5,0-6.5-1.2-8.9-3.5c-2.5-2.3-3.8-5.2-3.9-8.8h34.4c0.2-0.4,0.3-1.6,0.3-3.6c0-7.5-2-13.4-6.1-17.8
		C757.2,70.5,751.6,68.3,744.4,68.3z M733,88.1c0.2-2.8,1.3-5.2,3.4-7.3c2.1-2.1,4.8-3.1,8.1-3.1c3.7,0,6.5,1,8.5,3
		c2,2,3,4.5,3.1,7.4H733z M617.2,68.3c-7,0-12.8,2.4-17.4,7.1c-4.6,4.7-6.9,10.7-6.9,17.9c0,7.2,2.3,13.2,6.9,17.9
		c4.6,4.7,10.4,7.1,17.4,7.1c7.1,0,12.9-2.4,17.5-7.1c4.6-4.7,6.9-10.7,6.9-17.9c0-7.2-2.3-13.2-6.9-17.9
		C630.1,70.7,624.2,68.3,617.2,68.3z M626.5,104.2c-2.5,2.6-5.7,4-9.3,4c-3.7,0-6.8-1.3-9.3-4c-2.5-2.7-3.8-6.3-3.8-11
		c0-4.6,1.3-8.3,3.8-10.9c2.5-2.6,5.7-3.9,9.3-3.9c3.7,0,6.8,1.3,9.3,3.9c2.5,2.6,3.8,6.2,3.8,10.9
		C630.3,97.9,629,101.6,626.5,104.2z M700.6,68.4c-6.9,0-12,2.8-15.3,8.3c-1.2-2.7-3.1-4.8-5.6-6.2c-2.5-1.4-5.3-2.1-8.5-2.1
		c-2.8,0-5.5,0.6-8.1,1.9c-2.6,1.3-4.6,3.1-5.8,5.4v-6h-10.7v47h11.1V88.9c0-3,0.9-5.5,2.7-7.5c1.8-2,4.1-2.9,7.1-2.9
		c3,0,5.3,0.9,6.8,2.7c1.5,1.8,2.3,4.1,2.3,7v28.7h11V88.9c0-3,0.9-5.4,2.7-7.4c1.8-2,4.2-3,7.1-3c3,0,5.3,0.9,6.8,2.7
		c1.5,1.8,2.3,4.1,2.3,7v28.7h10.8V86.3c0-5.9-1.6-10.3-4.8-13.3C709.2,69.9,705.2,68.4,700.6,68.4z M791,53
		c-9,0-16.4,7.4-16.4,16.4c0,9,7.4,16.4,16.4,16.4c0.5,0,1-0.4,1-1c0-0.5-0.4-1-1-1c-8,0-14.5-6.5-14.5-14.5S783,54.9,791,54.9
		c8,0,14.5,6.5,14.5,14.5c0,3.7-1,5.5-2.1,7.1c-1.1,1.7-2.6,2.4-4,2c-1.2-0.4-2-1.7-2-3.4v-2.1c0-0.2,0-0.3,0-0.5v-7.4
		c0-3.5-2.7-5.7-7.1-5.7c-4.4,0-6.3,3-6.3,5.2c0,0.5,0.4,1,1,1c0.5,0,1-0.4,1-1c0-1.4,1.4-3.3,4.4-3.3c1.5,0,5.1,0.4,5.1,3.7v2.4
		h-2.3c-9.3,0-10,4.9-10,6.4c0,3.2,3.4,4.9,6.5,4.9c1.6,0,4.1-0.7,5.9-2.7c0.3,2.1,1.5,3.6,3.3,4.2c2.2,0.7,4.6-0.4,6.2-2.8
		c1.2-1.8,2.4-3.9,2.4-8.2C807.4,60.3,800,53,791,53z M795.4,72.6c-1.5,4.3-5.7,4.3-5.9,4.3c-2.2,0-4.6-1.1-4.6-3
		c0-2.8,3-4.5,8.1-4.5h2.3V72.6z M498.6,106c-1-0.9-1.4-2.4-1.4-4.5V79.7h9.8v-9.9h-9.8V55.4h-10.1v7.1c0,2.2-0.6,4-1.8,5.3
		c-1.2,1.4-3,2-5.4,2h-2.4v9.9h8.7v23.7c0,4.4,1.3,7.8,3.8,10.3c2.5,2.5,6,3.7,10.3,3.7c2.9,0,5.2-0.4,6.9-1.1V107
		c-1.3,0.3-2.6,0.4-3.9,0.4C501.1,107.4,499.6,107,498.6,106z M356.3,68.4c-2.8,0-5.5,0.6-8,1.9c-2.5,1.3-4.5,3.2-5.9,5.7v-6.3
		h-10.9v47h11.2V89.7c0-3.2,0.9-5.9,2.6-8c1.7-2.1,4.1-3.1,7.2-3.1c3.3,0,5.8,1,7.3,2.8c1.5,1.9,2.3,4.4,2.3,7.6v27.8h11.2V87
		c0-5.5-1.4-9.9-4.3-13.4C366,70.1,361.8,68.4,356.3,68.4z M400.6,88.9l-7.1-1.4c-3.2-0.6-4.7-2.3-4.7-4.9c0-1.5,0.6-2.8,1.9-3.8
		c1.3-1.1,2.9-1.6,4.8-1.6c2.8,0,4.8,0.7,6.2,2.2c1.4,1.4,2.2,3.1,2.5,4.9l9.5-2.7c-0.2-1.4-0.6-2.7-1.4-4.1c-0.7-1.4-1.7-2.8-3-4.2
		c-1.3-1.4-3.2-2.6-5.6-3.5c-2.4-0.9-5.1-1.4-8.2-1.4c-4.8,0-8.9,1.5-12.3,4.5c-3.3,3-5,6.6-5,10.7c0,3.3,1.1,6.2,3.3,8.7
		c2.2,2.4,5.3,4.1,9.4,5l7,1.5c3.7,0.8,5.5,2.5,5.5,5.2c0,1.5-0.6,2.8-1.9,3.9c-1.3,1-3,1.5-5.2,1.5c-2.8,0-5.1-0.8-6.8-2.3
		c-1.7-1.5-2.6-3.4-2.8-5.7L377,104c0.1,1.5,0.6,3,1.4,4.5c0.8,1.5,1.9,3,3.4,4.5c1.4,1.5,3.4,2.8,6,3.7c2.5,1,5.4,1.4,8.6,1.4
		c5.6,0,10-1.5,13.1-4.6c3.1-3.1,4.7-6.6,4.7-10.5c0-3.5-1.2-6.6-3.5-9.1C408.3,91.6,405,89.8,400.6,88.9z M575.3,76.6h-32.2V48.3
		h-11.6v68.5h11.6V87.5h32.2v29.3H587V48.3h-11.7V76.6z M323.7,85.9c0-5.2-1.6-9.4-4.9-12.7c-3.3-3.3-8.3-4.9-15.1-4.9
		c-5.5,0-10.1,1.5-13.7,4.5c-3.6,3-5.6,6.6-6.1,10.9l10.2,2.3c0.3-2.5,1.2-4.6,2.9-6.1c1.7-1.6,3.9-2.4,6.8-2.4c3,0,5.2,0.7,6.7,2
		c1.5,1.3,2.2,3,2.2,5.2c0,1.9-1.2,3.1-3.5,3.4l-12.1,1.8c-4.2,0.6-7.7,2.2-10.3,4.6c-2.6,2.4-3.9,5.6-3.9,9.6c0,3.9,1.5,7.2,4.4,10
		c2.9,2.8,6.8,4.2,11.5,4.2c6.6,0,11.4-2.5,14.5-7.4c0,3,0.2,5,0.5,6h10.4c-0.4-1.9-0.6-4.4-0.6-7.5V85.9z M312.7,97.3
		c0,4.3-1.1,7.4-3.2,9.3c-2.2,1.9-5,2.8-8.5,2.8c-2.1,0-3.8-0.6-5-1.8c-1.2-1.2-1.8-2.6-1.8-4.3c0-3.5,2.1-5.7,6.3-6.4l12.3-1.8
		V97.3z"/>
</g>
</svg>
