<?xml version="1.0" encoding="utf-8"?>
<!-- Generator: Adobe Illustrator 27.1.0, SVG Export Plug-In . SVG Version: 6.00 Build 0)  -->
<svg version="1.1" id="Layer_1" xmlns="http://www.w3.org/2000/svg" xmlns:xlink="http://www.w3.org/1999/xlink" x="0px" y="0px"
	 width="400px" height="400px" viewBox="0 0 400 400" style="enable-background:new 0 0 400 400;" xml:space="preserve">
<style type="text/css">
	.st0{fill:url(#SVGID_1_);}
	.st1{fill:url(#SVGID_00000009577798501396018200000005849794305635677374_);}
	.st2{fill:url(#SVGID_00000068677683984040128190000008508882763285853085_);}
	.st3{fill:url(#SVGID_00000089552178324203884810000012209480084937135260_);}
	.st4{fill:#F7F7F9;}
	.st5{fill:#342922;}
	.st6{fill:url(#SVGID_00000039133694915524729100000006411245769571337631_);}
	.st7{fill:url(#SVGID_00000093148646338920452920000008000414738980102334_);}
	.st8{fill:url(#SVGID_00000026143853774021965880000009733433114810282650_);}
	.st9{fill:url(#SVGID_00000169524923381497238200000003456975802217579929_);}
	.st10{fill:#00A0FF;}
	.st11{fill:url(#SVGID_00000081615467222327432120000004427114502280373155_);}
	.st12{fill:url(#SVGID_00000093884198943464349430000005315004817898460819_);}
	.st13{fill:url(#SVGID_00000123409886868864663830000017129494204836123048_);}
	.st14{fill:url(#SVGID_00000018934692909573267420000003205929804919903660_);}
	.st15{fill:url(#SVGID_00000137831176357928030080000011630004016665606039_);}
	.st16{fill:url(#SVGID_00000128450315197376237960000011655725729915819165_);}
	.st17{fill:url(#SVGID_00000088126072407432978520000011811944460238475911_);}
	.st18{fill:url(#SVGID_00000050648194406173394820000004610077883263610788_);}
</style>
<g>
	<g>
		<linearGradient id="SVGID_1_" gradientUnits="userSpaceOnUse" x1="169.2983" y1="311.705" x2="169.2983" y2="127.0457">
			<stop  offset="0" style="stop-color:#039EFF"/>
			<stop  offset="0.163" style="stop-color:#09A2FF"/>
			<stop  offset="0.3762" style="stop-color:#19ACFF"/>
			<stop  offset="0.6174" style="stop-color:#34BCFF"/>
			<stop  offset="0.8773" style="stop-color:#5AD3FF"/>
			<stop  offset="1" style="stop-color:#6EE0FF"/>
		</linearGradient>
		<path class="st0" d="M161.8,311.7c-5,0-9.9-2.3-13.1-6.6c-12.7-17.2-26.4-57.6-26.4-92.9c0-46.9,34.9-85.1,77.7-85.1
			c9,0,16.3,7.3,16.3,16.3s-7.3,16.3-16.3,16.3c-24.9,0-45.1,23.5-45.1,52.4c0,28.8,11.6,62.2,20,73.5c5.4,7.3,3.8,17.5-3.4,22.8
			C168.6,310.7,165.2,311.7,161.8,311.7z"/>
	</g>
	<g>
		
			<linearGradient id="SVGID_00000141414318117697002090000005825013025126263954_" gradientUnits="userSpaceOnUse" x1="360.2208" y1="199.4737" x2="39.7792" y2="199.4737">
			<stop  offset="0" style="stop-color:#039EFF"/>
			<stop  offset="0.2328" style="stop-color:#06A0FF"/>
			<stop  offset="0.4197" style="stop-color:#10A6FF"/>
			<stop  offset="0.5908" style="stop-color:#21B1FF"/>
			<stop  offset="0.7524" style="stop-color:#39BFFF"/>
			<stop  offset="0.9059" style="stop-color:#57D2FF"/>
			<stop  offset="1" style="stop-color:#6EE0FF"/>
		</linearGradient>
		<path style="fill:url(#SVGID_00000141414318117697002090000005825013025126263954_);" d="M76.5,368.9c-9.8,0-19-3.8-25.9-10.7
			c-6.9-6.9-10.7-16.1-10.7-25.9V190.1c0-9.8,3.8-19,10.7-25.9L174,40.7c14.3-14.3,37.6-14.3,51.9,0l123.5,123.5
			c6.9,6.9,10.7,16.1,10.7,25.9l0.1,142.2c0,9.8-3.8,19-10.7,26c-6.9,6.9-16.1,10.8-26,10.8L76.5,368.9z M199.9,51.8
			c-3.8,0-7.6,1.5-10.5,4.4L65.9,179.6c-2.8,2.8-4.4,6.5-4.4,10.5v142.1c0,4,1.5,7.7,4.4,10.5c2.8,2.8,6.5,4.4,10.5,4.4l247.1,0
			c4,0,7.7-1.5,10.5-4.4c2.8-2.8,4.4-6.5,4.3-10.5l-0.1-142.2c0,0,0,0,0,0c0-4-1.5-7.7-4.3-10.5L210.4,56.1
			C207.5,53.2,203.7,51.8,199.9,51.8z"/>
	</g>
	<g>
		
			<linearGradient id="SVGID_00000170259368116964281220000002368615781074337215_" gradientUnits="userSpaceOnUse" x1="360.2208" y1="266.9481" x2="39.7792" y2="266.9481">
			<stop  offset="0" style="stop-color:#039EFF"/>
			<stop  offset="0.2328" style="stop-color:#06A0FF"/>
			<stop  offset="0.4197" style="stop-color:#10A6FF"/>
			<stop  offset="0.5908" style="stop-color:#21B1FF"/>
			<stop  offset="0.7524" style="stop-color:#39BFFF"/>
			<stop  offset="0.9059" style="stop-color:#57D2FF"/>
			<stop  offset="1" style="stop-color:#6EE0FF"/>
		</linearGradient>
		<path style="fill:url(#SVGID_00000170259368116964281220000002368615781074337215_);" d="M349.3,317.9c-6,0-10.9-4.9-10.9-10.9
			c0-17.2-13.5-33.9-38-47.1c-26.6-14.3-62.3-22.2-100.4-22.2s-73.8,7.9-100.4,22.2c-24.5,13.2-38,29.9-38,47.1
			c0,6-4.9,10.9-10.9,10.9s-10.9-4.9-10.9-10.9c0-25.6,17.6-49.2,49.5-66.3C119,224.8,158.3,216,200,216s81,8.8,110.7,24.8
			c31.9,17.1,49.5,40.7,49.5,66.3C360.2,313.1,355.3,317.9,349.3,317.9z"/>
	</g>
	<g>
		
			<linearGradient id="SVGID_00000162338012698636524030000001653668085549438905_" gradientUnits="userSpaceOnUse" x1="230.7016" y1="311.705" x2="230.7016" y2="127.0457">
			<stop  offset="0" style="stop-color:#039EFF"/>
			<stop  offset="0.163" style="stop-color:#09A2FF"/>
			<stop  offset="0.3762" style="stop-color:#19ACFF"/>
			<stop  offset="0.6174" style="stop-color:#34BCFF"/>
			<stop  offset="0.8773" style="stop-color:#5AD3FF"/>
			<stop  offset="1" style="stop-color:#6EE0FF"/>
		</linearGradient>
		<path style="fill:url(#SVGID_00000162338012698636524030000001653668085549438905_);" d="M238.2,311.7c-3.4,0-6.8-1-9.7-3.2
			c-7.3-5.4-8.8-15.6-3.4-22.8c8.3-11.3,20-44.7,20-73.5c0-28.9-20.2-52.4-45.1-52.4c-9,0-16.3-7.3-16.3-16.3S191,127,200,127
			c42.9,0,77.7,38.2,77.7,85.1c0,35.3-13.7,75.8-26.4,92.9C248.1,309.4,243.2,311.7,238.2,311.7z"/>
	</g>
</g>
</svg>
