<svg width="22" height="22" viewBox="0 0 22 22" fill="none" xmlns="http://www.w3.org/2000/svg">
<path fill-rule="evenodd" clip-rule="evenodd" d="M15.8314 9.83539L17.4167 8.25019C17.8063 7.86055 18.0011 7.66573 18.1238 7.46672C18.5208 6.82309 18.5208 6.01062 18.1238 5.36699C18.0011 5.16797 17.8063 4.97316 17.4167 4.58352C17.027 4.19388 16.8322 3.99906 16.6332 3.87633C15.9896 3.47938 15.1771 3.47938 14.5335 3.87633C14.3344 3.99906 14.1396 4.19388 13.75 4.58352L12.1438 6.18968C13.0242 7.70507 14.2957 8.96674 15.8314 9.83539ZM10.6893 7.6442L4.52303 13.8105L4.52302 13.8105C4.09797 14.2355 3.88544 14.4481 3.74571 14.7092C3.60597 14.9703 3.54703 15.265 3.42914 15.8544L2.89707 18.5148C2.83055 18.8474 2.79729 19.0137 2.8919 19.1083C2.98651 19.2029 3.15281 19.1696 3.48542 19.1031L6.14574 18.571C6.73519 18.4531 7.02991 18.3942 7.29101 18.2545C7.55211 18.1147 7.76464 17.9022 8.1897 17.4771L14.3732 11.2937C12.8884 10.3604 11.6315 9.11209 10.6893 7.6442Z" fill="#00A0FF"/>
</svg>
