<svg width="30" height="31" viewBox="0 0 30 31" fill="none" xmlns="http://www.w3.org/2000/svg">
<path fill-rule="evenodd" clip-rule="evenodd" d="M30 5.99988H0V10.9999C1.24615 10.9999 1.86923 10.9999 2.33333 11.2678C2.63737 11.4434 2.88985 11.6958 3.06538 11.9999C3.33333 12.464 3.33333 13.0871 3.33333 14.3332V24.9999C3.33333 27.8283 3.33333 29.2425 4.21201 30.1212C5.09069 30.9999 6.50491 30.9999 9.33334 30.9999H20.6667C23.4951 30.9999 24.9093 30.9999 25.788 30.1212C26.6667 29.2425 26.6667 27.8283 26.6667 24.9999V14.3332C26.6667 13.0871 26.6667 12.464 26.9346 11.9999C27.1102 11.6958 27.3626 11.4434 27.6667 11.2678C28.1308 10.9999 28.7538 10.9999 30 10.9999V5.99988ZM11.8334 14.3337C11.8334 13.7815 11.3857 13.3337 10.8334 13.3337C10.2811 13.3337 9.83337 13.7815 9.83337 14.3337V22.6671C9.83337 23.2194 10.2811 23.6671 10.8334 23.6671C11.3857 23.6671 11.8334 23.2194 11.8334 22.6671V14.3337ZM20.1667 14.3337C20.1667 13.7815 19.719 13.3337 19.1667 13.3337C18.6144 13.3337 18.1667 13.7815 18.1667 14.3337V22.6671C18.1667 23.2194 18.6144 23.6671 19.1667 23.6671C19.719 23.6671 20.1667 23.2194 20.1667 22.6671V14.3337Z" fill="#3C3C3C"/>
<path d="M11.7803 1.61765C11.9702 1.44046 12.3887 1.28388 12.9708 1.17221C13.553 1.06053 14.2663 1 15 1C15.7338 1 16.4471 1.06053 17.0292 1.17221C17.6114 1.28388 18.0299 1.44046 18.2198 1.61765" stroke="#3C3C3C" stroke-width="2" stroke-linecap="round"/>
</svg>
