<svg width="19" height="17" viewBox="0 0 19 17" fill="none" xmlns="http://www.w3.org/2000/svg">
<path d="M2.22961 9.08126L8.73681 15.1941C8.93987 15.3848 9.0414 15.4802 9.15808 15.5135C9.24777 15.5391 9.34282 15.5391 9.43251 15.5135C9.54919 15.4802 9.65071 15.3848 9.85376 15.1941L9.85378 15.1941L16.361 9.08126C18.1918 7.36136 18.4142 4.5311 16.8743 2.54642L16.5848 2.17324C14.7427 -0.201008 11.0451 0.19717 9.75078 2.90917C9.56795 3.29226 9.02264 3.29226 8.8398 2.90917C7.54544 0.19717 3.84789 -0.201006 2.0058 2.17324L1.71626 2.54642C0.176422 4.5311 0.398757 7.36136 2.22961 9.08126Z" stroke="#3C3C3C"/>
</svg>
