<svg width="29" height="26" viewBox="0 0 29 26" fill="none" xmlns="http://www.w3.org/2000/svg">
<path d="M1.40759 2.63803L2.1204 3.00122L1.40759 2.63803ZM1.84876 25.0457L1.28308 24.48L1.28308 24.48L1.84876 25.0457ZM26.0292 20.1699L25.666 19.4571L26.0292 20.1699ZM27.3402 18.8588L28.053 19.222L27.3402 18.8588ZM27.3402 2.63803L28.053 2.27484V2.27484L27.3402 2.63803ZM26.0292 1.32698L25.666 2.03979L25.666 2.03979L26.0292 1.32698ZM2.71864 1.32698L3.08183 2.03979L2.71864 1.32698ZM6.1047 20.7897L6.67038 21.3554L6.1047 20.7897ZM1.88061 5.8C1.88061 4.94672 1.88123 4.35488 1.91883 3.89475C1.95566 3.44397 2.02395 3.19051 2.1204 3.00122L0.694785 2.27484C0.464254 2.72728 0.369054 3.21473 0.324139 3.76446C0.279987 4.30485 0.280609 4.97312 0.280609 5.8H1.88061ZM1.88061 11.6343V5.8H0.280609V11.6343H1.88061ZM0.280566 11.6344V20.4965H1.88057V11.6344H0.280566ZM0.280566 20.4965V24.7275H1.88057V20.4965H0.280566ZM0.280566 24.7275C0.280566 25.8411 1.62699 26.3988 2.41445 25.6113L1.28308 24.48C1.50357 24.2595 1.88057 24.4157 1.88057 24.7275H0.280566ZM2.41445 25.6114L6.67038 21.3554L5.53901 20.224L1.28308 24.48L2.41445 25.6114ZM22.8672 19.6968H6.8118V21.2968H22.8672V19.6968ZM25.666 19.4571C25.4767 19.5535 25.2232 19.6218 24.7725 19.6586C24.3123 19.6962 23.7205 19.6968 22.8672 19.6968V21.2968C23.6941 21.2968 24.3624 21.2975 24.9028 21.2533C25.4525 21.2084 25.9399 21.1132 26.3924 20.8827L25.666 19.4571ZM26.6274 18.4956C26.4165 18.9096 26.0799 19.2461 25.666 19.4571L26.3924 20.8827C27.1074 20.5183 27.6887 19.937 28.053 19.222L26.6274 18.4956ZM26.8672 15.6968C26.8672 16.5501 26.8666 17.142 26.829 17.6021C26.7922 18.0529 26.7239 18.3063 26.6274 18.4956L28.053 19.222C28.2836 18.7696 28.3788 18.2821 28.4237 17.7324C28.4678 17.192 28.4672 16.5237 28.4672 15.6968H26.8672ZM26.8672 5.8V15.6968H28.4672V5.8H26.8672ZM26.6274 3.00122C26.7239 3.19051 26.7922 3.44397 26.829 3.89475C26.8666 4.35487 26.8672 4.94672 26.8672 5.8H28.4672C28.4672 4.97312 28.4678 4.30485 28.4237 3.76446C28.3788 3.21473 28.2836 2.72728 28.053 2.27484L26.6274 3.00122ZM25.666 2.03979C26.0799 2.25071 26.4165 2.58726 26.6274 3.00122L28.053 2.27484C27.6887 1.55982 27.1074 0.978494 26.3924 0.614175L25.666 2.03979ZM22.8672 1.8C23.7205 1.8 24.3123 1.80062 24.7725 1.83822C25.2232 1.87505 25.4767 1.94334 25.666 2.03979L26.3924 0.614175C25.9399 0.383645 25.4525 0.288444 24.9028 0.243529C24.3624 0.199378 23.6941 0.2 22.8672 0.2V1.8ZM5.88061 1.8H22.8672V0.2H5.88061V1.8ZM3.08183 2.03979C3.27112 1.94334 3.52458 1.87505 3.97536 1.83822C4.43548 1.80062 5.02733 1.8 5.88061 1.8V0.2C5.05373 0.2 4.38546 0.199378 3.84507 0.243529C3.29534 0.288444 2.80789 0.383645 2.35545 0.614175L3.08183 2.03979ZM2.1204 3.00122C2.33132 2.58726 2.66787 2.25071 3.08183 2.03979L2.35545 0.614175C1.64043 0.978494 1.0591 1.55982 0.694785 2.27484L2.1204 3.00122ZM1.08059 10.8343C0.638749 10.8343 0.280566 11.1925 0.280566 11.6344H1.88057C1.88057 12.0762 1.5224 12.4343 1.08059 12.4343V10.8343ZM6.67038 21.3554C6.70789 21.3179 6.75876 21.2968 6.8118 21.2968V19.6968C6.33441 19.6968 5.87658 19.8865 5.53901 20.224L6.67038 21.3554ZM0.280609 11.6343C0.280609 11.1925 0.638772 10.8343 1.08059 10.8343V12.4343C1.52243 12.4343 1.88061 12.0762 1.88061 11.6343H0.280609Z" fill="#3C3C3C"/>
<path d="M8.69751 7.81262L20.0506 7.81262" stroke="#3C3C3C" stroke-width="1.6" stroke-linecap="round" stroke-linejoin="round"/>
<path d="M8.69751 13.4889L16.6447 13.4889" stroke="#3C3C3C" stroke-width="1.6" stroke-linecap="round" stroke-linejoin="round"/>
</svg>
