<svg width="17" height="17" viewBox="0 0 17 17" fill="none" xmlns="http://www.w3.org/2000/svg">
<path fill-rule="evenodd" clip-rule="evenodd" d="M13.8315 6.83521L15.4167 5.25C15.8063 4.86037 16.0011 4.66555 16.1239 4.46653C16.5208 3.82291 16.5208 3.01043 16.1239 2.36681C16.0011 2.16779 15.8063 1.97297 15.4167 1.58334C15.027 1.1937 14.8322 0.998881 14.6332 0.876142C13.9896 0.479193 13.1771 0.479193 12.5335 0.876142C12.3345 0.998881 12.1397 1.1937 11.75 1.58334L10.1439 3.18949C11.0243 4.70489 12.2957 5.96655 13.8315 6.83521ZM8.68934 4.64401L2.52306 10.8103L2.52305 10.8103C2.098 11.2354 1.88547 11.4479 1.74574 11.709C1.606 11.9701 1.54706 12.2648 1.42917 12.8543L0.897104 15.5146C0.830582 15.8472 0.797321 16.0135 0.891929 16.1081C0.986537 16.2027 1.15284 16.1694 1.48545 16.1029L4.14577 15.5709C4.73522 15.453 5.02994 15.394 5.29104 15.2543C5.55214 15.1145 5.76467 14.902 6.18973 14.477L12.3732 8.29349C10.8885 7.36027 9.63154 6.11191 8.68934 4.64401Z" fill="#3C3C3C"/>
</svg>
