<svg width="15" height="15" viewBox="0 0 15 15" fill="none" xmlns="http://www.w3.org/2000/svg">
<path fill-rule="evenodd" clip-rule="evenodd" d="M12.5042 1.89674C12.0805 1.97212 11.5014 2.16376 10.6574 2.4451L4.1664 4.60877C3.34434 4.88279 2.74618 5.08233 2.31171 5.25185C1.86026 5.42799 1.66218 5.54457 1.57922 5.62429C0.964998 6.21453 0.964998 7.19718 1.57922 7.78742C1.66218 7.86714 1.86026 7.98371 2.31171 8.15986C2.74618 8.32937 3.34433 8.52892 4.1664 8.80294C4.17946 8.80729 4.19235 8.81159 4.20507 8.81582C4.49704 8.91308 4.6986 8.98022 4.88162 9.07702C5.32535 9.31169 5.68816 9.6745 5.92283 10.1182C6.01963 10.3013 6.08677 10.5028 6.18403 10.7948C6.18826 10.8075 6.19256 10.8204 6.19691 10.8335C6.47093 11.6555 6.67048 12.2537 6.84 12.6881C7.01614 13.1396 7.13271 13.3377 7.21243 13.4206C7.80267 14.0349 8.78533 14.0349 9.37556 13.4206C9.45528 13.3377 9.57186 13.1396 9.748 12.6881C9.91752 12.2537 10.1171 11.6555 10.3911 10.8335L12.5547 4.34247C12.8361 3.49844 13.0277 2.91936 13.1031 2.49562C13.1791 2.06826 13.1041 1.97117 13.0664 1.93344C13.0287 1.8957 12.9316 1.82072 12.5042 1.89674ZM12.3291 0.912198C12.8389 0.821512 13.3742 0.827049 13.7735 1.22633C14.1728 1.62561 14.1783 2.16098 14.0877 2.67077C13.9979 3.17553 13.7815 3.82466 13.5171 4.61781L13.5034 4.6587L11.3398 11.1497L11.3348 11.1645C11.0668 11.9687 10.8594 12.5909 10.6796 13.0516C10.5053 13.4982 10.3295 13.8712 10.0966 14.1135C9.11288 15.1372 7.47512 15.1372 6.49139 14.1135C6.2585 13.8712 6.08265 13.4982 5.90839 13.0516C5.72862 12.5909 5.52125 11.9688 5.25319 11.1646L5.24823 11.1497C5.13318 10.8045 5.09219 10.6866 5.03884 10.5857C4.89804 10.3195 4.68036 10.1018 4.41412 9.96101C4.31324 9.90766 4.19532 9.86667 3.85017 9.75162L3.83528 9.74666C3.03109 9.4786 2.40898 9.27123 1.94823 9.09146C1.50162 8.9172 1.12868 8.74135 0.886329 8.50846C-0.137372 7.52473 -0.137372 5.88697 0.886329 4.90324C1.12868 4.67035 1.50162 4.4945 1.94823 4.32025C2.40899 4.14047 3.03112 3.9331 3.83533 3.66503L3.85017 3.66008L10.3412 1.49642L10.382 1.48281C11.1752 1.21839 11.8243 1.00199 12.3291 0.912198Z" fill="#3C3C3C"/>
</svg>
