<svg width="26" height="27" viewBox="0 0 26 27" fill="none" xmlns="http://www.w3.org/2000/svg">
<path d="M16.1358 2.08771C16.7888 1.65234 17.1153 1.43466 17.4711 1.46988C17.8269 1.50511 18.1044 1.78261 18.6594 2.3376L23.8406 7.51884C24.3956 8.07384 24.6731 8.35133 24.7083 8.7071C24.7436 9.06287 24.5259 9.3894 24.0905 10.0425L20.7557 15.0446C19.8807 16.3572 19.4431 17.0135 19.1432 17.7376C18.8433 18.4616 18.6886 19.2351 18.3793 20.782L17.9489 22.9339C17.8153 23.6016 17.7486 23.9355 17.5854 24.1308C17.3712 24.3872 17.0432 24.5197 16.7111 24.484C16.458 24.4568 16.1781 24.263 15.6182 23.8755V23.8755C12.991 22.0566 11.6774 21.1472 10.4598 20.1296C8.86105 18.7934 7.38479 17.3172 6.04862 15.7184C5.03101 14.5008 4.12159 13.1872 2.30276 10.56V10.56C1.91519 10.0002 1.7214 9.72024 1.69421 9.46714C1.65853 9.13502 1.79104 8.80701 2.0474 8.59286C2.24276 8.42967 2.5766 8.3629 3.24427 8.22937L5.39626 7.79897C6.94317 7.48959 7.71662 7.3349 8.44067 7.03499C9.16472 6.73508 9.82102 6.29754 11.1336 5.42248L16.1358 2.08771Z" stroke="#3C3C3C" stroke-width="2"/>
<path d="M0.999999 25.1783L7.75 18.4283" stroke="#3C3C3C" stroke-width="2" stroke-linecap="round"/>
</svg>
