<svg width="16" height="18" viewBox="0 0 16 18" fill="none" xmlns="http://www.w3.org/2000/svg">
<path d="M0.70575 6.1766C0.70575 3.5977 0.70575 2.30825 1.50703 1.50709C2.30831 0.705933 3.59794 0.705933 6.17722 0.705933H9.82487C12.4041 0.705933 13.6938 0.705933 14.4951 1.50709C15.2963 2.30825 15.2963 3.5977 15.2963 6.1766V12.4019C15.2963 14.8484 15.2963 16.0717 14.5264 16.4459C13.7565 16.82 12.7945 16.0642 10.8704 14.5527L10.2546 14.069C9.17277 13.219 8.63184 12.7941 8.00104 12.7941C7.37025 12.7941 6.82932 13.219 5.74745 14.069L5.13168 14.5527C3.20762 16.0642 2.24559 16.82 1.47567 16.4459C0.70575 16.0717 0.70575 14.8484 0.70575 12.4019V6.1766Z" stroke="#3C3C3C"/>
</svg>
