<svg width="31" height="31" viewBox="0 0 31 31" fill="none" xmlns="http://www.w3.org/2000/svg">
<circle cx="15.5" cy="15.5" r="15.5" fill="url(#paint0_linear_50_2111)"/>
<path fill-rule="evenodd" clip-rule="evenodd" d="M19.8315 13.8351L21.4167 12.2499C21.8063 11.8603 22.0011 11.6655 22.1239 11.4665C22.5208 10.8228 22.5208 10.0104 22.1239 9.36674C22.0011 9.16773 21.8063 8.97291 21.4167 8.58328C21.027 8.19364 20.8322 7.99882 20.6332 7.87608C19.9896 7.47913 19.1771 7.47913 18.5335 7.87608C18.3345 7.99882 18.1397 8.19364 17.75 8.58327L16.1439 10.1894C17.0243 11.7048 18.2957 12.9665 19.8315 13.8351ZM14.6893 11.644L8.52306 17.8102L8.52305 17.8102C8.098 18.2353 7.88547 18.4478 7.74574 18.7089C7.606 18.97 7.54706 19.2647 7.42917 19.8542L6.8971 22.5145C6.83058 22.8471 6.79732 23.0134 6.89193 23.108C6.98654 23.2026 7.15284 23.1694 7.48545 23.1029L10.1458 22.5708C10.7352 22.4529 11.0299 22.394 11.291 22.2542C11.5521 22.1145 11.7647 21.902 12.1897 21.4769L18.3732 15.2934C16.8885 14.3602 15.6315 13.1118 14.6893 11.644Z" fill="white"/>
<defs>
<linearGradient id="paint0_linear_50_2111" x1="15.5" y1="-3.84989" x2="15.5" y2="23.2667" gradientUnits="userSpaceOnUse">
<stop stop-color="#E9E9E9"/>
<stop offset="0.5" stop-color="#6EE1FF"/>
<stop offset="1" stop-color="#00A0FF"/>
</linearGradient>
</defs>
</svg>
