<svg width="46" height="40" viewBox="0 0 46 40" fill="none" xmlns="http://www.w3.org/2000/svg">
<path d="M34.6549 39.3121H11.2042C5.08099 39.3121 0 34.3655 0 28.1172V11.1948C0 5.07673 4.9507 0 11.2042 0H34.6549C40.7782 0 45.8591 4.94655 45.8591 11.1948V28.1172C45.8591 34.2353 40.7782 39.3121 34.6549 39.3121ZM11.2042 2.60345C6.51408 2.60345 2.60563 6.37845 2.60563 11.1948V28.1172C2.60563 32.8035 6.3838 36.7086 11.2042 36.7086H34.6549C39.3451 36.7086 43.2535 32.9336 43.2535 28.1172V11.1948C43.2535 6.50862 39.4754 2.60345 34.6549 2.60345H11.2042Z" fill="white"/>
<path d="M19.1514 26.9457C18.6302 26.9457 18.1091 26.8155 17.7183 26.5551C16.8063 26.0345 16.2852 25.1232 16.2852 24.0819V15.3603C16.2852 14.3189 16.8063 13.4077 17.7183 12.887C18.6302 12.3663 19.6725 12.3663 20.5845 12.887L28.1408 17.3129C29.0528 17.8336 29.5739 18.7448 29.5739 19.7862C29.5739 20.8276 29.0528 21.7388 28.1408 22.2595L20.5845 26.6853C20.1936 26.8155 19.6725 26.9457 19.1514 26.9457ZM19.1514 14.9698H19.0211C18.8908 14.9698 18.8908 15.1 18.8908 15.2301V23.9517C18.8908 24.0819 19.0211 24.212 19.0211 24.212C19.0211 24.212 19.1514 24.3422 19.2816 24.212L26.838 19.7862C26.9683 19.656 26.9683 19.656 26.9683 19.5258C26.9683 19.3957 26.9683 19.2655 26.838 19.2655L19.2816 14.8396C19.2816 14.9698 19.1514 14.9698 19.1514 14.9698Z" fill="white"/>
</svg>
