<svg width="25" height="24" viewBox="0 0 25 24" fill="none" xmlns="http://www.w3.org/2000/svg">
<path d="M3 9L1.93934 10.0607L0.878679 9L1.93934 7.93934L3 9ZM24.5 19C24.5 19.8284 23.8284 20.5 23 20.5C22.1716 20.5 21.5 19.8284 21.5 19L24.5 19ZM8.18934 16.3107L1.93934 10.0607L4.06066 7.93934L10.3107 14.1893L8.18934 16.3107ZM1.93934 7.93934L8.18934 1.68934L10.3107 3.81066L4.06066 10.0607L1.93934 7.93934ZM3 7.5L17 7.5L17 10.5L3 10.5L3 7.5ZM24.5 15L24.5 19L21.5 19L21.5 15L24.5 15ZM17 7.5C21.1421 7.5 24.5 10.8579 24.5 15L21.5 15C21.5 12.5147 19.4853 10.5 17 10.5L17 7.5Z" fill="#342922"/>
</svg>
