<svg width="18" height="18" viewBox="0 0 18 18" fill="none" xmlns="http://www.w3.org/2000/svg">
<path d="M0.999999 6L0.646446 6.35355L0.292892 6L0.646446 5.64645L0.999999 6ZM6 17.5C5.72386 17.5 5.5 17.2761 5.5 17C5.5 16.7239 5.72386 16.5 6 16.5L6 17.5ZM5.64645 11.3536L0.646446 6.35355L1.35355 5.64645L6.35355 10.6464L5.64645 11.3536ZM0.646446 5.64645L5.64645 0.646446L6.35355 1.35355L1.35355 6.35355L0.646446 5.64645ZM0.999999 5.5L11.5 5.5L11.5 6.5L0.999999 6.5L0.999999 5.5ZM11.5 17.5L6 17.5L6 16.5L11.5 16.5L11.5 17.5ZM17.5 11.5C17.5 14.8137 14.8137 17.5 11.5 17.5L11.5 16.5C14.2614 16.5 16.5 14.2614 16.5 11.5L17.5 11.5ZM11.5 5.5C14.8137 5.5 17.5 8.18629 17.5 11.5L16.5 11.5C16.5 8.73857 14.2614 6.5 11.5 6.5L11.5 5.5Z" fill="#342922"/>
</svg>
