<svg width="310" height="597" viewBox="0 0 310 597" fill="none" xmlns="http://www.w3.org/2000/svg">
<rect width="310" height="597" fill="#F6F6F9"/>
<circle cx="282.5" cy="29.5" r="15.5" fill="url(#paint0_linear_167_2490)"/>
<path fill-rule="evenodd" clip-rule="evenodd" d="M286.831 27.8352L288.416 26.25C288.806 25.8604 289.001 25.6655 289.124 25.4665C289.521 24.8229 289.521 24.0104 289.124 23.3668C289.001 23.1678 288.806 22.973 288.416 22.5833C288.027 22.1937 287.832 21.9989 287.633 21.8761C286.989 21.4792 286.177 21.4792 285.533 21.8761C285.334 21.9989 285.139 22.1937 284.75 22.5833L283.144 24.1895C284.024 25.7049 285.295 26.9666 286.831 27.8352ZM281.689 25.644L275.523 31.8103L275.523 31.8103C275.098 32.2354 274.885 32.4479 274.745 32.709C274.606 32.9701 274.547 33.2648 274.429 33.8543L273.897 36.5146C273.83 36.8472 273.797 37.0135 273.892 37.1081C273.986 37.2027 274.153 37.1694 274.485 37.1029L277.146 36.5709C277.735 36.453 278.03 36.394 278.291 36.2543C278.552 36.1145 278.764 35.902 279.189 35.477L285.373 29.2935C283.888 28.3603 282.631 27.1119 281.689 25.644Z" fill="white"/>
<path d="M165.227 299.289H144.773C139.432 299.289 135 294.974 135 289.524V274.764C135 269.428 139.318 265 144.773 265H165.227C170.568 265 175 269.314 175 274.764V289.524C175 294.861 170.568 299.289 165.227 299.289ZM144.773 267.271C140.682 267.271 137.273 270.563 137.273 274.764V289.524C137.273 293.612 140.568 297.018 144.773 297.018H165.227C169.318 297.018 172.727 293.725 172.727 289.524V274.764C172.727 270.677 169.432 267.271 165.227 267.271H144.773Z" fill="#3C3C3C"/>
<path d="M151.705 288.503C151.25 288.503 150.795 288.389 150.455 288.162C149.659 287.708 149.205 286.913 149.205 286.005V278.398C149.205 277.489 149.659 276.694 150.455 276.24C151.25 275.786 152.159 275.786 152.955 276.24L159.546 280.101C160.341 280.555 160.796 281.35 160.796 282.258C160.796 283.166 160.341 283.961 159.546 284.415L152.955 288.275C152.614 288.389 152.159 288.503 151.705 288.503ZM151.705 278.057H151.591C151.477 278.057 151.477 278.17 151.477 278.284V285.891C151.477 286.005 151.591 286.118 151.591 286.118C151.591 286.118 151.705 286.232 151.818 286.118L158.409 282.258C158.523 282.144 158.523 282.144 158.523 282.031C158.523 281.917 158.523 281.804 158.409 281.804L151.818 277.943C151.818 278.057 151.705 278.057 151.705 278.057Z" fill="#3C3C3C"/>
<defs>
<linearGradient id="paint0_linear_167_2490" x1="282.5" y1="10.1501" x2="282.5" y2="37.2667" gradientUnits="userSpaceOnUse">
<stop stop-color="#E9E9E9"/>
<stop offset="0.5" stop-color="#6EE1FF"/>
<stop offset="1" stop-color="#00A0FF"/>
</linearGradient>
</defs>
</svg>
