<svg width="132" height="132" viewBox="0 0 132 132" fill="none" xmlns="http://www.w3.org/2000/svg">
<circle cx="66" cy="66" r="66" fill="#F7F7F9"/>
<path d="M52 58C52 54.2288 52 52.3431 53.1716 51.1716C54.3431 50 56.2288 50 60 50H72C75.7712 50 77.6569 50 78.8284 51.1716C80 52.3431 80 54.2288 80 58V70C80 73.7712 80 75.6569 78.8284 76.8284C77.6569 78 75.7712 78 72 78H60C56.2288 78 54.3431 78 53.1716 76.8284C52 75.6569 52 73.7712 52 70V58Z" stroke="#3C3C3C" stroke-width="1.6"/>
<path d="M55 67.6429L57.472 64.5908C59.4749 62.1177 60.4764 60.8812 61.6351 61.0841C62.7938 61.287 63.3156 62.7902 64.3592 65.7966L64.7004 66.7797C65.1651 68.1185 65.3974 68.7878 65.8922 68.9327C65.9635 68.9535 66.037 68.9664 66.1112 68.971C66.6257 69.0029 67.0717 68.4523 67.9636 67.3511V67.3511C69.2443 65.7698 69.8847 64.9791 70.7228 64.9007C70.8467 64.8891 70.9715 64.8891 71.0954 64.9007C71.9335 64.9791 72.5739 65.7698 73.8546 67.3511L76 70" stroke="#3C3C3C" stroke-width="1.6"/>
<circle cx="73.0003" cy="57" r="2.33333" fill="white" stroke="#3C3C3C" stroke-width="1.6" stroke-linecap="round"/>
</svg>
